<?xml version="1.0" standalone="no"?>
<!DOCTYPE svg PUBLIC "-//W3C//DTD SVG 20010904//EN"
 "http://www.w3.org/TR/2001/REC-SVG-20010904/DTD/svg10.dtd">
<svg version="1.0" xmlns="http://www.w3.org/2000/svg"
 width="175.000000pt" height="175.000000pt" viewBox="0 0 175.000000 175.000000"
 preserveAspectRatio="xMidYMid meet">
<metadata>
Created by potrace 1.14, written by Peter Selinger 2001-2017
</metadata>
<g transform="translate(0.000000,175.000000) scale(0.100000,-0.100000)"
fill="#000000" stroke="none">
<path d="M546 1725 c-9 -13 -41 -40 -71 -60 -65 -41 -145 -113 -145 -129 0 -6
11 1 23 15 35 40 135 110 139 98 2 -6 23 14 46 45 24 31 39 56 33 56 -5 0 -16
-11 -25 -25z"/>
<path d="M741 1724 c0 -11 3 -14 6 -6 3 7 2 16 -1 19 -3 4 -6 -2 -5 -13z"/>
<path d="M918 1703 c7 -3 16 -2 19 1 4 3 -2 6 -13 5 -11 0 -14 -3 -6 -6z"/>
<path d="M751 1690 c0 -8 4 -22 9 -30 12 -18 12 -2 0 25 -6 13 -9 15 -9 5z"/>
<path d="M965 1690 c27 -12 43 -12 25 0 -8 5 -22 9 -30 9 -10 0 -8 -3 5 -9z"/>
<path d="M1130 1635 c-16 -19 0 -19 26 0 16 12 16 14 3 15 -9 0 -22 -7 -29
-15z"/>
<path d="M1015 1600 c-99 -13 -238 -70 -304 -126 -75 -63 -187 -272 -202 -378
-18 -121 -21 -220 -8 -251 9 -22 13 -26 16 -13 2 9 -1 27 -7 38 -19 36 -3 34
32 -3 18 -19 71 -53 117 -76 128 -63 138 -76 62 -76 -41 0 -47 2 -38 14 10 11
8 13 -13 6 -30 -9 -35 -13 -28 -21 9 -9 119 -22 140 -16 19 5 25 22 8 22 -5 0
-10 5 -10 10 0 6 7 10 15 10 8 0 15 -6 15 -13 0 -7 15 -19 34 -25 24 -9 39
-23 50 -50 l17 -37 -6 34 c-3 19 0 40 6 47 9 11 7 14 -12 15 -58 1 -55 15 3
16 94 3 154 13 175 30 17 14 16 14 -7 8 -61 -16 -149 -26 -191 -20 -147 18
-329 103 -329 153 0 10 10 7 35 -12 19 -15 35 -23 35 -17 0 5 -5 13 -11 16 -6
4 -8 13 -5 20 2 7 -4 36 -15 64 -10 28 -19 68 -19 89 1 35 2 32 31 -38 17 -41
35 -79 40 -85 5 -5 9 25 10 80 l0 90 19 -42 c21 -47 36 -57 26 -18 -4 14 -2
25 4 25 5 0 10 -15 10 -34 0 -99 121 -127 157 -36 9 22 20 40 25 40 4 0 8 16
8 35 0 23 -5 35 -14 35 -23 0 -34 23 -41 80 -5 54 -5 54 9 25 8 -16 17 -43 21
-58 5 -24 9 -27 28 -21 30 9 32 11 18 28 -7 8 -11 23 -8 33 4 16 6 15 12 -4
12 -36 21 -27 17 17 -8 79 14 38 37 -71 20 -92 26 -109 36 -96 16 22 25 11 25
-29 0 -17 8 -42 19 -55 16 -20 21 -21 35 -10 8 7 18 29 22 48 4 19 13 37 20
40 20 7 17 40 -3 48 -17 6 -17 7 0 16 9 6 17 16 17 23 0 8 7 19 15 26 14 12
15 8 10 -26 -18 -125 -22 -170 -15 -177 10 -11 39 52 66 143 l23 75 0 -47 c1
-26 -4 -59 -10 -75 -11 -25 -38 -197 -38 -233 1 -41 17 34 23 105 5 50 17 100
32 134 19 43 24 70 24 138 0 90 14 105 26 28 8 -59 22 -49 16 12 -7 74 -48
201 -84 257 -39 63 -78 107 -90 100 -4 -3 -18 2 -30 10 -12 9 -27 15 -33 15
-5 -1 -37 -5 -70 -9z m-230 -379 c3 -17 20 -48 36 -70 l29 -41 -34 0 c-19 0
-37 4 -40 8 -11 18 -18 132 -8 132 6 0 13 -13 17 -29z m335 -72 c-11 -53 -31
-82 -45 -67 -3 2 5 29 16 59 11 30 22 60 25 68 2 8 7 11 11 8 3 -4 0 -34 -7
-68z m-406 2 c16 -31 13 -43 -10 -34 -12 5 -21 63 -9 63 2 0 11 -13 19 -29z
m341 -50 c-3 -12 -11 -19 -16 -16 -5 4 -5 14 2 26 13 26 23 18 14 -10z"/>
<path d="M266 1433 c-6 -14 -5 -15 5 -6 7 7 10 15 7 18 -3 3 -9 -2 -12 -12z"/>
<path d="M226 1335 c-3 -9 -6 -22 -5 -28 0 -7 5 -1 10 12 5 13 8 26 5 28 -2 2
-6 -3 -10 -12z"/>
<path d="M211 1274 c0 -11 3 -14 6 -6 3 7 2 16 -1 19 -3 4 -6 -2 -5 -13z"/>
<path d="M191 1204 c0 -11 3 -14 6 -6 3 7 2 16 -1 19 -3 4 -6 -2 -5 -13z"/>
<path d="M181 1154 c0 -11 3 -14 6 -6 3 7 2 16 -1 19 -3 4 -6 -2 -5 -13z"/>
<path d="M172 1075 c0 -16 2 -22 5 -12 2 9 2 23 0 30 -3 6 -5 -1 -5 -18z"/>
<path d="M1270 930 l-5 -124 -35 -23 c-51 -32 -92 -65 -87 -70 6 -5 70 35 108
67 l30 25 -3 125 -3 125 -5 -125z"/>
<path d="M286 882 c84 -80 100 -91 224 -143 41 -17 79 -35 84 -39 5 -5 4 -23
-3 -41 l-11 -33 24 23 c22 21 29 22 77 14 49 -7 54 -10 60 -40 7 -36 25 -63
42 -63 6 0 1 10 -11 23 -14 15 -22 36 -22 58 l0 34 -53 3 c-36 2 -56 9 -67 22
-8 10 -51 32 -95 48 -133 50 -147 58 -232 136 -44 42 -85 76 -90 76 -4 -1 28
-35 73 -78z"/>
<path d="M1115 800 c-10 -11 -13 -20 -7 -20 6 0 16 9 22 20 6 11 9 20 7 20 -2
0 -12 -9 -22 -20z"/>
<path d="M140 656 c0 -2 8 -10 18 -17 15 -13 16 -12 3 4 -13 16 -21 21 -21 13z"/>
<path d="M650 641 c0 -5 7 -11 15 -15 8 -3 15 -1 15 3 0 5 -7 11 -15 15 -8 3
-15 1 -15 -3z"/>
<path d="M777 643 c-16 -15 -4 -34 34 -53 40 -21 73 -20 82 3 3 9 -5 12 -29 9
-29 -4 -35 0 -44 22 -9 25 -29 34 -43 19z"/>
<path d="M970 592 c0 -5 7 -15 16 -23 18 -15 11 -58 -13 -76 -13 -10 -11 -11
13 -9 16 2 40 5 54 5 l25 2 -23 10 c-13 5 -28 7 -33 3 -5 -3 -9 0 -9 6 0 16
48 31 76 24 13 -3 29 -14 34 -23 5 -9 9 -11 10 -6 0 26 -51 61 -75 51 -8 -3
-20 0 -27 7 -29 27 -48 39 -48 29z"/>
<path d="M10 550 c0 -5 5 -10 11 -10 5 0 7 5 4 10 -3 6 -8 10 -11 10 -2 0 -4
-4 -4 -10z"/>
<path d="M1180 482 c70 -36 89 -55 116 -105 19 -38 24 -44 19 -22 -12 57 -84
129 -140 140 -30 6 -30 6 5 -13z"/>
<path d="M890 445 c-23 -19 -45 -35 -48 -35 -3 0 -17 10 -30 23 -24 21 -24 21
3 -20 25 -39 26 -44 12 -70 -34 -64 -39 -83 -35 -117 4 -36 4 -36 -20 -20
l-24 16 22 -30 c19 -25 22 -40 18 -82 -6 -59 -19 -76 -74 -95 -29 -10 -33 -14
-16 -15 13 0 42 9 65 21 81 40 93 41 144 8 37 -23 58 -29 97 -28 l51 1 -38 9
c-118 28 -191 110 -186 210 2 27 0 51 -3 55 -8 8 1 34 19 56 8 9 12 22 8 28
-6 10 31 80 43 80 13 1 57 40 45 40 -6 0 -30 -16 -53 -35z m-45 -375 c-7 -12
-35 -14 -35 -2 0 4 3 17 6 30 7 23 7 23 21 2 8 -11 11 -25 8 -30z"/>
<path d="M434 318 c7 -29 -13 -98 -31 -105 -7 -3 -25 2 -39 12 -14 9 -28 14
-31 12 -7 -8 53 -37 75 -37 13 0 23 12 32 41 12 36 16 40 39 34 l26 -6 -27 24
c-16 13 -28 29 -28 36 0 6 -5 11 -11 11 -7 0 -9 -9 -5 -22z"/>
<path d="M935 330 c3 -5 10 -10 16 -10 5 0 9 5 9 10 0 6 -7 10 -16 10 -8 0
-12 -4 -9 -10z"/>
<path d="M762 295 c-15 -33 -15 -36 2 -29 7 3 14 16 14 30 0 30 -2 30 -16 -1z"/>
<path d="M534 269 c-28 -8 -67 -39 -50 -39 10 0 86 40 86 45 0 3 -1 5 -2 4 -2
0 -17 -5 -34 -10z"/>
<path d="M970 270 c0 -5 5 -10 11 -10 5 0 7 5 4 10 -3 6 -8 10 -11 10 -2 0 -4
-4 -4 -10z"/>
<path d="M950 240 c0 -5 5 -10 10 -10 6 0 10 5 10 10 0 6 -4 10 -10 10 -5 0
-10 -4 -10 -10z"/>
<path d="M225 218 c8 -19 67 -62 108 -77 36 -14 77 -14 77 -1 0 6 -16 10 -35
10 -42 0 -88 21 -128 59 -18 16 -26 20 -22 9z"/>
<path d="M1285 114 c-21 -40 -76 -86 -120 -102 l-30 -10 33 -1 c43 -1 103 46
127 100 23 50 15 60 -10 13z"/>
<path d="M463 52 c5 -21 3 -22 -28 -16 -46 8 -80 -3 -64 -22 9 -10 38 -14 118
-14 72 0 101 3 91 10 -8 5 -27 10 -41 10 -15 0 -38 12 -54 28 -27 26 -28 26
-22 4z"/>
</g>
</svg>
